<svg width="44" height="20" viewBox="0 0 44 20" fill="none" xmlns="http://www.w3.org/2000/svg">
<path d="M23 13.6667C23 14.1382 22.7425 14.5903 22.284 14.9237C21.8256 15.2571 21.2039 15.4444 20.5556 15.4444H5.88889L1 19V4.77778C1 4.30628 1.25754 3.8541 1.71596 3.5207C2.17438 3.1873 2.79614 3 3.44444 3H20.5556C21.2039 3 21.8256 3.1873 22.284 3.5207C22.7425 3.8541 23 4.30628 23 4.77778V13.6667Z" stroke="white" stroke-width="2" stroke-linecap="round" stroke-linejoin="round"/>
<path d="M27.1217 12.987C27.5304 12.9058 27.9029 12.8029 28.2391 12.6783C28.5754 12.5565 28.8696 12.4188 29.1217 12.2652C29.3768 12.1145 29.587 11.9536 29.7522 11.7826C29.9203 11.6116 30.0391 11.4377 30.1087 11.2609C29.9841 11.2609 29.8522 11.258 29.713 11.2522C29.5739 11.2493 29.4594 11.2449 29.3696 11.2391C29.0826 11.2159 28.8217 11.1609 28.587 11.0739C28.3522 10.9899 28.1493 10.8739 27.9783 10.7261C27.8101 10.5754 27.6797 10.3928 27.587 10.1783C27.4942 9.96377 27.4478 9.71739 27.4478 9.43913C27.4478 9.26232 27.4667 9.08116 27.5043 8.89565C27.542 8.71014 27.5957 8.52899 27.6652 8.35217C27.7377 8.17536 27.8261 8.0087 27.9304 7.85217C28.0377 7.69565 28.158 7.55797 28.2913 7.43913C28.4246 7.32029 28.571 7.22754 28.7304 7.16087C28.8928 7.0913 29.0667 7.05652 29.2522 7.05652C29.5188 7.05652 29.7623 7.11449 29.9826 7.23043C30.2029 7.34638 30.3971 7.50145 30.5652 7.69565C30.7362 7.88696 30.8826 8.1087 31.0043 8.36087C31.1261 8.61014 31.2232 8.87101 31.2957 9.14348C31.371 9.41304 31.4203 9.68261 31.4435 9.95217C31.4696 10.2217 31.471 10.471 31.4478 10.7C31.413 11.0391 31.3362 11.3565 31.2174 11.6522C31.1014 11.9507 30.9507 12.2246 30.7652 12.4739C30.5826 12.7261 30.3696 12.9536 30.1261 13.1565C29.8826 13.3623 29.6188 13.542 29.3348 13.6957C29.0507 13.8522 28.7478 13.9826 28.4261 14.087C28.1072 14.1913 27.7797 14.2696 27.4435 14.3217L27.1217 12.987ZM29.2522 8.43478C29.1913 8.42319 29.1217 8.44493 29.0435 8.5C28.9652 8.55217 28.8928 8.62464 28.8261 8.71739C28.7594 8.80725 28.7029 8.90725 28.6565 9.01739C28.613 9.12754 28.5913 9.23333 28.5913 9.33478C28.5913 9.43333 28.6217 9.51594 28.6826 9.58261C28.7435 9.64638 28.8217 9.69855 28.9174 9.73913C29.013 9.77971 29.1203 9.81159 29.2391 9.83478C29.3609 9.85507 29.4812 9.86957 29.6 9.87826C29.7188 9.88406 29.8319 9.88696 29.9391 9.88696H30.2087C30.1652 9.70725 30.113 9.53478 30.0522 9.36957C29.9942 9.20435 29.9261 9.05652 29.8478 8.92609C29.7696 8.79565 29.6812 8.68696 29.5826 8.6C29.4841 8.51304 29.3739 8.45797 29.2522 8.43478ZM31.8092 12.987C32.2179 12.9058 32.5904 12.8029 32.9266 12.6783C33.2629 12.5565 33.5571 12.4188 33.8092 12.2652C34.0643 12.1145 34.2745 11.9536 34.4397 11.7826C34.6078 11.6116 34.7266 11.4377 34.7962 11.2609C34.6716 11.2609 34.5397 11.258 34.4005 11.2522C34.2614 11.2493 34.1469 11.2449 34.0571 11.2391C33.7701 11.2159 33.5092 11.1609 33.2745 11.0739C33.0397 10.9899 32.8368 10.8739 32.6658 10.7261C32.4976 10.5754 32.3672 10.3928 32.2745 10.1783C32.1817 9.96377 32.1353 9.71739 32.1353 9.43913C32.1353 9.26232 32.1542 9.08116 32.1918 8.89565C32.2295 8.71014 32.2832 8.52899 32.3527 8.35217C32.4252 8.17536 32.5136 8.0087 32.6179 7.85217C32.7252 7.69565 32.8455 7.55797 32.9788 7.43913C33.1121 7.32029 33.2585 7.22754 33.4179 7.16087C33.5803 7.0913 33.7542 7.05652 33.9397 7.05652C34.16 7.05652 34.3629 7.0971 34.5484 7.17826C34.7339 7.25652 34.9034 7.36377 35.0571 7.5C35.2136 7.63623 35.3513 7.7971 35.4701 7.98261C35.5918 8.16522 35.6962 8.36232 35.7832 8.57391C35.873 8.78261 35.9455 9 36.0005 9.22609C36.0585 9.44928 36.0991 9.66957 36.1223 9.88696H36.3092V11.2609H36.031C35.9179 11.687 35.7368 12.0725 35.4875 12.4174C35.2411 12.7652 34.9455 13.0681 34.6005 13.3261C34.2556 13.5841 33.8716 13.7971 33.4484 13.9652C33.0281 14.1333 32.5889 14.2522 32.131 14.3217L31.8092 12.987ZM33.9397 8.43478C33.8788 8.42319 33.8092 8.44493 33.731 8.5C33.6527 8.55217 33.5803 8.62464 33.5136 8.71739C33.4469 8.80725 33.3904 8.90725 33.344 9.01739C33.2976 9.12754 33.2759 9.23333 33.2788 9.33478C33.2817 9.43333 33.3136 9.51449 33.3745 9.57826C33.4353 9.64203 33.5136 9.69565 33.6092 9.73913C33.7049 9.77971 33.8121 9.81014 33.931 9.83043C34.0527 9.85072 34.173 9.86522 34.2918 9.87391C34.4107 9.88261 34.5223 9.88696 34.6266 9.88696H34.8962C34.8527 9.70725 34.8005 9.53478 34.7397 9.36957C34.6817 9.20435 34.6136 9.05652 34.5353 8.92609C34.4571 8.79565 34.3687 8.68696 34.2701 8.6C34.1716 8.51304 34.0614 8.45797 33.9397 8.43478ZM40.0101 9.88696V11.2609H39.9101C39.7709 11.2609 39.6332 11.2493 39.497 11.2261C39.3637 11.2029 39.2376 11.1696 39.1187 11.1261C38.9999 11.0855 38.8898 11.0362 38.7883 10.9783C38.6898 10.9203 38.6043 10.858 38.5318 10.7913C38.3956 10.8957 38.239 10.9783 38.0622 11.0391C37.8883 11.1 37.7028 11.1464 37.5057 11.1783C37.3115 11.213 37.1101 11.2348 36.9014 11.2435C36.6956 11.2551 36.4927 11.2609 36.2927 11.2609H36.1318V9.88696H36.2927C36.5014 9.88696 36.6869 9.88116 36.8492 9.86957C37.0144 9.85797 37.1579 9.83768 37.2796 9.8087C37.4043 9.77971 37.5086 9.74203 37.5927 9.69565C37.6767 9.64638 37.7448 9.58551 37.797 9.51304C37.8637 9.42029 37.9043 9.31739 37.9188 9.20435C37.9361 9.0913 37.9376 8.97536 37.9231 8.85652C37.9115 8.73478 37.8898 8.61449 37.8579 8.49565C37.826 8.37391 37.797 8.25797 37.7709 8.14783L39.0361 7.78696C39.0709 7.91739 39.0999 8.03623 39.1231 8.14348C39.1492 8.25072 39.1709 8.35507 39.1883 8.45652C39.2086 8.55797 39.226 8.66087 39.2405 8.76522C39.255 8.86957 39.2709 8.98261 39.2883 9.10435C39.2999 9.18261 39.3144 9.26812 39.3318 9.36087C39.3521 9.45072 39.384 9.53478 39.4274 9.61304C39.4709 9.6913 39.5303 9.75652 39.6057 9.8087C39.684 9.86087 39.7854 9.88696 39.9101 9.88696H40.0101ZM37.8274 12.5348L37.0101 13.3522L36.1666 12.513L37.0014 11.6739L37.8274 12.5L38.6448 11.6826L39.4883 12.5217L38.6535 13.3609L37.8274 12.5348ZM39.833 9.88696H40.4199C40.5417 9.88696 40.675 9.87681 40.8199 9.85652C40.9677 9.83623 41.104 9.80435 41.2286 9.76087C41.3562 9.71449 41.462 9.65362 41.546 9.57826C41.633 9.5 41.6764 9.40435 41.6764 9.2913C41.6764 9.22174 41.6562 9.11884 41.6156 8.98261C41.575 8.84348 41.5214 8.68985 41.4547 8.52174C41.388 8.35072 41.3127 8.17246 41.2286 7.98696C41.1446 7.80145 41.0605 7.62464 40.9764 7.45652L42.2199 6.83913C42.3011 7.02174 42.3808 7.21594 42.4591 7.42174C42.5402 7.62754 42.6127 7.83623 42.6764 8.04783C42.7402 8.25942 42.7909 8.47101 42.8286 8.68261C42.8692 8.8913 42.8895 9.0913 42.8895 9.28261C42.8895 9.63043 42.8315 9.92899 42.7156 10.1783C42.5996 10.4275 42.4373 10.6333 42.2286 10.7957C42.0199 10.9551 41.7706 11.0725 41.4808 11.1478C41.1909 11.2232 40.8721 11.2609 40.5243 11.2609H39.833V9.88696ZM41.2199 6.38261L40.2547 5.41739L41.2199 4.45217L42.1851 5.41739L41.2199 6.38261Z" fill="#00D492"/>
</svg>
