<svg width="45" height="34" viewBox="0 0 45 34" fill="none" xmlns="http://www.w3.org/2000/svg">
<path d="M44 22.3333C44 23.2763 43.4966 24.1807 42.6006 24.8475C41.7046 25.5143 40.4894 25.8889 39.2222 25.8889H10.5556L1 33V4.55556C1 3.61256 1.50337 2.70819 2.39938 2.0414C3.29539 1.3746 4.51063 1 5.77778 1H39.2222C40.4894 1 41.7046 1.3746 42.6006 2.0414C43.4966 2.70819 44 3.61256 44 4.55556V22.3333Z" stroke="white" stroke-width="2" stroke-linecap="round" stroke-linejoin="round"/>
<path d="M5.4 17V10.56H7.21L9.33 13.53V10.56H11.48V17H9.65L7.55 14.04V17H5.4ZM14.2848 17V10.56H16.4348V17H14.2848Z" fill="#00D492"/>
<path d="M21.504 17L19.034 10.56H21.274L22.624 14.48L23.984 10.56H26.234L23.754 17H21.504ZM31.5036 17.1C30.7836 17.1 30.1736 16.99 29.6736 16.77C29.1736 16.55 28.7903 16.1967 28.5236 15.71C28.2636 15.2233 28.1336 14.5833 28.1336 13.79C28.1336 12.9833 28.2636 12.3367 28.5236 11.85C28.7903 11.3633 29.1736 11.01 29.6736 10.79C30.1736 10.57 30.7836 10.46 31.5036 10.46C32.2236 10.46 32.8336 10.57 33.3336 10.79C33.8336 11.01 34.2136 11.3633 34.4736 11.85C34.7403 12.3367 34.8736 12.9833 34.8736 13.79C34.8736 14.5833 34.7403 15.2233 34.4736 15.71C34.2136 16.1967 33.8336 16.55 33.3336 16.77C32.8336 16.99 32.2236 17.1 31.5036 17.1ZM31.5036 15.28C31.9169 15.28 32.2136 15.1633 32.3936 14.93C32.5803 14.6967 32.6736 14.3167 32.6736 13.79C32.6736 13.2367 32.5803 12.85 32.3936 12.63C32.2136 12.4033 31.9169 12.29 31.5036 12.29C31.0836 12.29 30.7803 12.4033 30.5936 12.63C30.4136 12.85 30.3236 13.2367 30.3236 13.79C30.3236 14.3167 30.4136 14.6967 30.5936 14.93C30.7803 15.1633 31.0836 15.28 31.5036 15.28ZM37.1123 17L37.6063 15.712H38.0563L38.5523 17H38.1043L38.0043 16.744H37.6583L37.5603 17H37.1123ZM37.7103 16.444H37.9523L37.8303 16.132L37.7103 16.444ZM39.0718 17V15.712H39.5018V17H39.0718Z" fill="white"/>
</svg>
