<svg width="45" height="34" viewBox="0 0 45 34" fill="none" xmlns="http://www.w3.org/2000/svg">
<path d="M44 22.3333C44 23.2763 43.4966 24.1807 42.6006 24.8475C41.7046 25.5143 40.4894 25.8889 39.2222 25.8889H10.5556L1 33V4.55556C1 3.61256 1.50337 2.70819 2.39938 2.0414C3.29539 1.3746 4.51063 1 5.77778 1H39.2222C40.4894 1 41.7046 1.3746 42.6006 2.0414C43.4966 2.70819 44 3.61256 44 4.55556V22.3333Z" stroke="white" stroke-width="2" stroke-linecap="round" stroke-linejoin="round"/>
<path d="M14.1217 17.987C14.5304 17.9058 14.9029 17.8029 15.2391 17.6783C15.5754 17.5565 15.8696 17.4188 16.1217 17.2652C16.3768 17.1145 16.587 16.9536 16.7522 16.7826C16.9203 16.6116 17.0391 16.4377 17.1087 16.2609C16.9841 16.2609 16.8522 16.258 16.713 16.2522C16.5739 16.2493 16.4594 16.2449 16.3696 16.2391C16.0826 16.2159 15.8217 16.1609 15.587 16.0739C15.3522 15.9899 15.1493 15.8739 14.9783 15.7261C14.8101 15.5754 14.6797 15.3928 14.587 15.1783C14.4942 14.9638 14.4478 14.7174 14.4478 14.4391C14.4478 14.2623 14.4667 14.0812 14.5043 13.8957C14.542 13.7101 14.5957 13.529 14.6652 13.3522C14.7377 13.1754 14.8261 13.0087 14.9304 12.8522C15.0377 12.6957 15.158 12.558 15.2913 12.4391C15.4246 12.3203 15.571 12.2275 15.7304 12.1609C15.8928 12.0913 16.0667 12.0565 16.2522 12.0565C16.5188 12.0565 16.7623 12.1145 16.9826 12.2304C17.2029 12.3464 17.3971 12.5014 17.5652 12.6957C17.7362 12.887 17.8826 13.1087 18.0043 13.3609C18.1261 13.6101 18.2232 13.871 18.2957 14.1435C18.371 14.413 18.4203 14.6826 18.4435 14.9522C18.4696 15.2217 18.471 15.471 18.4478 15.7C18.413 16.0391 18.3362 16.3565 18.2174 16.6522C18.1014 16.9507 17.9507 17.2246 17.7652 17.4739C17.5826 17.7261 17.3696 17.9536 17.1261 18.1565C16.8826 18.3623 16.6188 18.542 16.3348 18.6957C16.0507 18.8522 15.7478 18.9826 15.4261 19.087C15.1072 19.1913 14.7797 19.2696 14.4435 19.3217L14.1217 17.987ZM16.2522 13.4348C16.1913 13.4232 16.1217 13.4449 16.0435 13.5C15.9652 13.5522 15.8928 13.6246 15.8261 13.7174C15.7594 13.8072 15.7029 13.9072 15.6565 14.0174C15.613 14.1275 15.5913 14.2333 15.5913 14.3348C15.5913 14.4333 15.6217 14.5159 15.6826 14.5826C15.7435 14.6464 15.8217 14.6986 15.9174 14.7391C16.013 14.7797 16.1203 14.8116 16.2391 14.8348C16.3609 14.8551 16.4812 14.8696 16.6 14.8783C16.7188 14.8841 16.8319 14.887 16.9391 14.887H17.2087C17.1652 14.7072 17.113 14.5348 17.0522 14.3696C16.9942 14.2043 16.9261 14.0565 16.8478 13.9261C16.7696 13.7957 16.6812 13.687 16.5826 13.6C16.4841 13.513 16.3739 13.458 16.2522 13.4348ZM18.8092 17.987C19.2179 17.9058 19.5904 17.8029 19.9266 17.6783C20.2629 17.5565 20.5571 17.4188 20.8092 17.2652C21.0643 17.1145 21.2745 16.9536 21.4397 16.7826C21.6078 16.6116 21.7266 16.4377 21.7962 16.2609C21.6716 16.2609 21.5397 16.258 21.4005 16.2522C21.2614 16.2493 21.1469 16.2449 21.0571 16.2391C20.7701 16.2159 20.5092 16.1609 20.2745 16.0739C20.0397 15.9899 19.8368 15.8739 19.6658 15.7261C19.4976 15.5754 19.3672 15.3928 19.2745 15.1783C19.1817 14.9638 19.1353 14.7174 19.1353 14.4391C19.1353 14.2623 19.1542 14.0812 19.1918 13.8957C19.2295 13.7101 19.2832 13.529 19.3527 13.3522C19.4252 13.1754 19.5136 13.0087 19.6179 12.8522C19.7252 12.6957 19.8455 12.558 19.9788 12.4391C20.1121 12.3203 20.2585 12.2275 20.4179 12.1609C20.5803 12.0913 20.7542 12.0565 20.9397 12.0565C21.16 12.0565 21.3629 12.0971 21.5484 12.1783C21.7339 12.2565 21.9034 12.3638 22.0571 12.5C22.2136 12.6362 22.3513 12.7971 22.4701 12.9826C22.5918 13.1652 22.6962 13.3623 22.7832 13.5739C22.873 13.7826 22.9455 14 23.0005 14.2261C23.0585 14.4493 23.0991 14.6696 23.1223 14.887H23.3092V16.2609H23.031C22.9179 16.687 22.7368 17.0725 22.4875 17.4174C22.2411 17.7652 21.9455 18.0681 21.6005 18.3261C21.2556 18.5841 20.8716 18.7971 20.4484 18.9652C20.0281 19.1333 19.5889 19.2522 19.131 19.3217L18.8092 17.987ZM20.9397 13.4348C20.8788 13.4232 20.8092 13.4449 20.731 13.5C20.6527 13.5522 20.5803 13.6246 20.5136 13.7174C20.4469 13.8072 20.3904 13.9072 20.344 14.0174C20.2976 14.1275 20.2759 14.2333 20.2788 14.3348C20.2817 14.4333 20.3136 14.5145 20.3745 14.5783C20.4353 14.642 20.5136 14.6957 20.6092 14.7391C20.7049 14.7797 20.8121 14.8101 20.931 14.8304C21.0527 14.8507 21.173 14.8652 21.2918 14.8739C21.4107 14.8826 21.5223 14.887 21.6266 14.887H21.8962C21.8527 14.7072 21.8005 14.5348 21.7397 14.3696C21.6817 14.2043 21.6136 14.0565 21.5353 13.9261C21.4571 13.7957 21.3687 13.687 21.2701 13.6C21.1716 13.513 21.0614 13.458 20.9397 13.4348ZM27.0101 14.887V16.2609H26.9101C26.7709 16.2609 26.6332 16.2493 26.497 16.2261C26.3637 16.2029 26.2376 16.1696 26.1187 16.1261C25.9999 16.0855 25.8898 16.0362 25.7883 15.9783C25.6898 15.9203 25.6043 15.858 25.5318 15.7913C25.3956 15.8957 25.239 15.9783 25.0622 16.0391C24.8883 16.1 24.7028 16.1464 24.5057 16.1783C24.3115 16.213 24.1101 16.2348 23.9014 16.2435C23.6956 16.2551 23.4927 16.2609 23.2927 16.2609H23.1318V14.887H23.2927C23.5014 14.887 23.6869 14.8812 23.8492 14.8696C24.0144 14.858 24.1579 14.8377 24.2796 14.8087C24.4043 14.7797 24.5086 14.742 24.5927 14.6957C24.6767 14.6464 24.7448 14.5855 24.797 14.513C24.8637 14.4203 24.9043 14.3174 24.9188 14.2043C24.9361 14.0913 24.9376 13.9754 24.9231 13.8565C24.9115 13.7348 24.8898 13.6145 24.8579 13.4957C24.826 13.3739 24.797 13.258 24.7709 13.1478L26.0361 12.787C26.0709 12.9174 26.0999 13.0362 26.1231 13.1435C26.1492 13.2507 26.1709 13.3551 26.1883 13.4565C26.2086 13.558 26.226 13.6609 26.2405 13.7652C26.255 13.8696 26.2709 13.9826 26.2883 14.1043C26.2999 14.1826 26.3144 14.2681 26.3318 14.3609C26.3521 14.4507 26.384 14.5348 26.4274 14.613C26.4709 14.6913 26.5303 14.7565 26.6057 14.8087C26.684 14.8609 26.7854 14.887 26.9101 14.887H27.0101ZM24.8274 17.5348L24.0101 18.3522L23.1666 17.513L24.0014 16.6739L24.8274 17.5L25.6448 16.6826L26.4883 17.5217L25.6535 18.3609L24.8274 17.5348ZM26.833 14.887H27.4199C27.5417 14.887 27.675 14.8768 27.8199 14.8565C27.9677 14.8362 28.104 14.8043 28.2286 14.7609C28.3562 14.7145 28.462 14.6536 28.546 14.5783C28.633 14.5 28.6764 14.4043 28.6764 14.2913C28.6764 14.2217 28.6562 14.1188 28.6156 13.9826C28.575 13.8435 28.5214 13.6899 28.4547 13.5217C28.388 13.3507 28.3127 13.1725 28.2286 12.987C28.1446 12.8014 28.0605 12.6246 27.9764 12.4565L29.2199 11.8391C29.3011 12.0217 29.3808 12.2159 29.4591 12.4217C29.5402 12.6275 29.6127 12.8362 29.6764 13.0478C29.7402 13.2594 29.7909 13.471 29.8286 13.6826C29.8692 13.8913 29.8895 14.0913 29.8895 14.2826C29.8895 14.6304 29.8315 14.929 29.7156 15.1783C29.5996 15.4275 29.4373 15.6333 29.2286 15.7957C29.0199 15.9551 28.7706 16.0725 28.4808 16.1478C28.1909 16.2232 27.8721 16.2609 27.5243 16.2609H26.833V14.887ZM28.2199 11.3826L27.2547 10.4174L28.2199 9.45217L29.1851 10.4174L28.2199 11.3826Z" fill="#00D492"/>
</svg>
