<svg width="520" height="218" viewBox="0 0 520 218" fill="none" xmlns="http://www.w3.org/2000/svg">
<path d="M116.798 46.522C113.072 46.1127 109.07 45.9588 105.334 46.3751C102.882 46.6479 100.391 46.8998 97.9773 47.407C94.1047 48.2151 90.2952 49.5374 86.671 51.1151C84.838 51.9127 83.2253 52.6718 81.4412 53.5779C80.6086 54.0012 79.6956 54.3475 78.912 54.8652C72.0905 59.3604 66.4689 64.1391 61.7183 70.8276C59.8957 73.3918 58.1082 75.9665 56.7788 78.8315C56.2156 80.0384 55.446 81.1553 55.1382 82.4566C54.8653 82.754 54.1447 84.8065 54.0118 85.1773C53.501 86.6186 52.8609 88.0563 52.4236 89.5221C52.0598 90.743 51.7414 92.0627 51.4651 93.3011C50.9228 95.7533 50.643 98.1872 50.3176 100.678C49.9748 103.284 50.1427 106.03 50.1392 108.654C50.1358 113.317 50.1462 117.984 50.1078 122.647C50.0518 128.943 50.0413 135.24 50.0168 141.537C50.0028 144.972 49.674 148.603 50.2652 152C51.1467 157.094 54.9318 161.883 59.8608 163.642C66.1051 165.871 73.2204 164.688 77.8556 159.791C79.0065 158.577 80.0769 157.22 80.7451 155.67C82.5607 151.458 82.2773 148.114 82.2738 143.636C82.2668 135.59 82.2493 127.544 82.2493 119.498C82.2528 114.146 81.868 108.678 83.0889 103.424C85.1878 94.3741 91.9114 87.1818 100.269 83.5507C103.49 82.1514 106.992 81.5287 110.501 81.5217C114.163 81.5147 117.847 82.3123 121.181 83.8095C123.885 85.0234 126.512 86.4996 128.702 88.5321C133.113 92.6285 136.535 97.8863 137.853 103.823C138.668 107.492 138.616 111.218 138.609 114.951C138.591 120.292 138.343 125.715 138.749 131.042C139.183 136.744 141.054 142.744 144.14 147.585C149.006 155.222 156.488 161.519 165.44 163.684C170.187 164.835 174.917 164.769 179.765 164.776C185.747 164.779 191.355 165.43 196.298 161.396C202.801 156.09 203.13 145.063 196.015 140.152C191.869 137.29 189.253 138.455 184.82 137.693C178.597 136.619 173.115 132.536 170.691 126.638C168.858 122.185 169.299 117.207 169.299 112.502L169.299 112.111C169.296 104.962 169.293 98.1959 167.63 91.1803C163.967 75.7322 153.732 61.4314 139.714 53.7423C136.695 52.0876 133.568 50.6954 130.357 49.4675C126.022 47.8093 121.38 47.0258 116.798 46.522Z" fill="url(#paint0_linear_56_109)"/>
<path fill-rule="evenodd" clip-rule="evenodd" d="M294.875 160.932C297.574 160.481 300.448 162.005 301.028 164.806C301.238 165.813 301.175 166.883 301.175 167.907C301.179 168.638 301.399 171.04 300.822 171.481C300.056 172.072 299.238 171.488 299.116 170.687C298.749 168.253 300.228 164.012 296.994 162.963C296.577 162.827 296.126 162.792 295.689 162.802C292.147 162.879 292.605 166.439 292.609 168.956C292.609 169.907 292.864 172.187 291.161 171.62C290.196 171.299 290.536 168.757 290.539 167.907C290.543 166.879 290.434 165.785 290.623 164.771C291.008 162.68 292.878 161.264 294.875 160.932Z" fill="#5A6472"/>
<path fill-rule="evenodd" clip-rule="evenodd" d="M310.814 161.154C312.01 160.605 312.294 161.773 312.336 162.657C312.444 164.857 312.353 167.099 312.346 169.302C312.343 170.1 312.57 171.569 311.43 171.67C310.339 171.768 310.251 170.824 310.22 170.002C310.146 167.914 310.216 165.795 310.237 163.707C310.244 163.035 310.02 161.521 310.814 161.154ZM311.132 156.995C312.619 156.785 312.881 159.206 311.423 159.342C309.915 159.482 309.695 157.202 311.132 156.995Z" fill="#5A6472"/>
<path fill-rule="evenodd" clip-rule="evenodd" d="M321.267 161.108C322.208 160.766 322.585 161.482 322.935 162.192C323.666 163.696 324.291 165.245 325.012 166.752C325.134 167.007 325.858 168.619 326.103 168.594C326.284 168.577 326.914 167.133 327.026 166.902C327.665 165.605 328.84 162.461 329.672 161.51C330.089 161.038 330.952 160.71 331.4 161.388C331.893 162.133 331.054 163.287 330.728 163.958C329.865 165.759 329.001 167.57 328.103 169.353C327.753 170.049 327.428 171.098 326.756 171.545C325.819 172.164 325.054 171.402 324.634 170.608C323.977 169.37 323.494 168.024 322.907 166.748C322.431 165.724 321.84 164.755 321.354 163.738C321.029 163.056 320.124 161.521 321.267 161.108Z" fill="#5A6472"/>
<path fill-rule="evenodd" clip-rule="evenodd" d="M343.728 160.894C344.62 160.786 345.519 160.859 346.382 161.121C352.165 162.883 350.931 171.376 345.012 171.911C337.753 172.565 336.47 161.779 343.728 160.894ZM343.34 162.943C339.057 164.181 340.868 171.121 345.638 169.719C349.889 168.474 348.047 161.583 343.34 162.943Z" fill="#5A6472"/>
<path fill-rule="evenodd" clip-rule="evenodd" d="M363.06 160.913C365.515 160.578 368.242 161.822 369.123 164.263C369.55 165.441 369.508 166.721 369.49 167.955C369.476 168.717 369.707 171.081 369.067 171.518C367.865 172.336 367.826 170.854 367.382 170.717C367.309 170.693 367.074 170.871 367.06 170.878C366.585 171.161 366.179 171.431 365.644 171.602C364.158 172.084 362.473 171.976 361.085 171.242C356.312 168.707 357.795 161.637 363.06 160.913ZM362.599 162.962C360.456 163.62 359.69 166.55 360.84 168.333C361.749 169.742 363.623 170.168 365.144 169.647C369.305 168.224 367.218 161.543 362.599 162.962Z" fill="#5A6472"/>
<path fill-rule="evenodd" clip-rule="evenodd" d="M379.019 161.142C380.225 160.621 380.505 161.754 380.547 162.66C380.649 164.863 380.537 167.098 380.551 169.305C380.554 170.099 380.796 171.578 379.645 171.686C378.54 171.791 378.459 170.833 378.438 170.004C378.382 167.913 378.459 165.804 378.456 163.709C378.456 163.02 378.187 161.502 379.019 161.142ZM379.348 156.998C380.869 156.767 381.194 159.236 379.641 159.355C378.176 159.467 377.945 157.207 379.348 156.998Z" fill="#5A6472"/>
<path fill-rule="evenodd" clip-rule="evenodd" d="M390.536 169.274C392.137 169.152 392.409 171.636 390.801 171.817C389.053 172.016 388.777 169.406 390.536 169.274Z" fill="#5A6472"/>
<path fill-rule="evenodd" clip-rule="evenodd" d="M402.07 161.096C403.053 160.754 403.483 161.481 403.563 162.313C403.791 164.716 403.546 167.245 403.556 169.658C403.56 170.546 403.658 171.781 402.385 171.697C401.29 171.627 401.455 170.445 401.451 169.658C401.437 167.559 401.455 165.461 401.448 163.363C401.444 162.67 401.213 161.39 402.07 161.096ZM402.123 157.011C403.518 156.588 404.343 158.757 403.004 159.257C401.441 159.841 400.636 157.466 402.123 157.011Z" fill="#5A6472"/>
<path fill-rule="evenodd" clip-rule="evenodd" d="M417.534 160.896C417.961 160.861 418.538 160.759 418.944 160.948C419.629 161.266 419.79 162.305 419.062 162.7C417.8 163.385 416.15 162.329 415.227 164.465C414.521 166.098 414.951 168.273 414.902 170C414.877 170.867 414.797 171.941 413.59 171.654C412.325 171.353 412.842 168.826 412.853 167.902C412.867 166.756 412.706 165.532 413.007 164.409C413.563 162.354 415.489 161.074 417.534 160.896Z" fill="#5A6472"/>
<path fill-rule="evenodd" clip-rule="evenodd" d="M251.895 88.5095C261.427 87.2853 271.588 93.424 273.974 102.959C274.869 106.537 274.471 110.441 274.471 114.103C274.471 117.251 274.467 120.399 274.478 123.547C274.488 125.681 274.512 127.804 272.246 128.77C271.742 128.983 271.266 129.071 270.717 129.064C265.89 129.008 267.027 122.89 267.031 119.7C267.038 116.667 267.048 113.638 267.038 110.605C267.031 108.843 267.195 106.978 266.838 105.243C266.009 101.186 262.802 97.7019 258.912 96.3482C257.439 95.8305 255.841 95.5297 254.277 95.5297C252.707 95.5332 251.136 95.855 249.65 96.3517C245.837 97.6284 242.675 100.846 241.678 104.781C241.108 107.034 241.262 109.35 241.265 111.655C241.265 114.918 241.262 118.185 241.265 121.449C241.265 122.932 241.433 124.527 241.234 125.996C240.832 128.955 237.023 130.078 234.903 128.053C233.738 126.937 233.798 125.377 233.805 123.897C233.819 121.214 233.805 118.535 233.801 115.852C233.794 112.033 233.371 107.702 234.168 103.97C236.029 95.2534 243.301 89.6148 251.895 88.5095Z" fill="white"/>
<path fill-rule="evenodd" clip-rule="evenodd" d="M291.415 89.846C291.965 89.6711 292.538 89.6186 293.108 89.6571C296.676 89.9125 296.432 93.2532 296.421 95.9187C296.386 104.199 296.39 112.475 296.404 120.755C296.411 123.865 297.341 128.986 292.759 129.077C288.554 129.161 289.04 125.068 289.044 122.154C289.051 114.343 289.03 106.528 289.04 98.7172C289.047 96.0271 288.099 90.892 291.415 89.846ZM291.814 78.026C297.222 76.7807 298.964 84.8997 293.794 85.9492C288.267 87.072 286.511 79.2468 291.814 78.026Z" fill="white"/>
<path fill-rule="evenodd" clip-rule="evenodd" d="M310.007 89.9129C313.526 88.5383 314.719 91.4485 315.908 93.9319C318.727 99.8083 321.666 105.65 324.611 111.463C325.555 113.328 326.482 115.216 327.381 117.102C327.517 117.389 327.941 118.777 328.35 118.665C328.703 118.567 329.042 117.462 329.193 117.154C329.987 115.51 330.847 113.901 331.638 112.254C333.782 107.794 336.115 103.422 338.319 98.9898C339.505 96.6043 340.641 93.7116 342.006 91.4694C343.324 89.2938 346.609 88.9895 348.155 91.0812C348.651 91.7528 348.914 92.6168 348.833 93.4492C348.756 94.2258 348.256 94.9288 347.913 95.6109C347.137 97.164 346.357 98.7205 345.591 100.284C343.566 104.415 341.561 108.581 339.403 112.642C338.067 115.16 336.692 117.682 335.472 120.257C334.765 121.743 333.953 123.17 333.233 124.65C332.498 126.161 331.984 127.658 330.428 128.515C329.903 128.802 329.385 128.987 328.787 129.047C325.037 129.421 324.058 126.273 322.648 123.555C318.528 115.608 314.659 107.518 310.644 99.518C310.018 98.2728 308.143 94.9708 307.922 93.813C307.618 92.211 308.451 90.5215 310.007 89.9129Z" fill="white"/>
<path fill-rule="evenodd" clip-rule="evenodd" d="M378.415 88.9187C381.248 88.9607 383.962 89.6882 386.575 90.7481C388.856 91.6715 390.94 93.0672 392.735 94.7531C394.498 96.4146 395.96 98.4504 397.034 100.619C397.877 102.319 398.359 104.162 398.702 106.02C401.046 118.654 389.95 130.113 377.414 129.648C366.69 129.249 357.634 121.102 356.931 110.256C356.749 107.461 357.375 104.495 358.379 101.896C359.39 99.2688 361.086 96.9987 363.031 94.9945C364.927 93.0392 367.288 91.5806 369.813 90.5872C372.605 89.4889 375.396 88.8697 378.415 88.9187ZM376.106 96.2432C370.912 96.9883 366.186 100.605 364.78 105.789C362.853 112.893 367.312 120.459 374.549 122.075C376.715 122.558 378.953 122.593 381.129 122.148C387.988 120.749 392.717 113.708 391.437 106.842C390.535 102.008 386.673 98.0551 382.007 96.7154C380.104 96.1697 378.072 95.9634 376.106 96.2432Z" fill="white"/>
<path fill-rule="evenodd" clip-rule="evenodd" d="M433.451 95.7173C441.07 94.7973 448.797 98.7222 451.697 105.988C453.069 109.426 452.894 113.124 452.862 116.758C452.841 119.322 452.901 121.89 452.869 124.454C452.852 126.032 452.754 127.595 451.204 128.438C449.745 129.225 447.755 128.613 446.957 127.176C446.73 126.766 446.709 125.64 446.328 125.444C446.034 125.297 445.135 126.179 444.904 126.333C443.438 127.291 441.728 127.984 440.049 128.459C435.82 129.663 431.083 128.946 427.193 127.004C425.5 126.158 423.992 124.828 422.716 123.443C421.421 122.033 420.463 120.522 419.704 118.763C415.251 108.45 422.642 97.0256 433.451 95.7173ZM435.235 101.699C431.846 101.923 428.645 103.522 426.676 106.344C422.775 111.945 425.395 119.788 431.636 122.233C433.074 122.792 434.683 122.964 436.215 122.887C437.852 122.803 439.451 122.397 440.902 121.628C446.429 118.686 448.224 111.27 444.558 106.149C443.211 104.267 441.182 102.962 439.017 102.231C437.827 101.828 436.491 101.615 435.235 101.699Z" fill="#16D9A2"/>
<path fill-rule="evenodd" clip-rule="evenodd" d="M464.948 96.7346C465.665 96.6052 466.333 96.6962 466.997 96.997C469.127 97.9624 468.879 100.068 468.876 102.065C468.869 108.711 468.851 115.357 468.883 122.003C468.897 124.452 469.488 128.52 465.948 128.778C465.157 128.838 464.44 128.618 463.779 128.198C461.971 127.054 462.38 124.896 462.387 123.052C462.415 116.641 462.447 110.226 462.387 103.814C462.363 101.422 461.681 97.3293 464.948 96.7346ZM465.332 85.6045C470.012 85.2197 470.38 92.0685 465.951 92.4428C461.233 92.838 460.582 85.9927 465.332 85.6045Z" fill="#16D9A2"/>
<path d="M190.741 47.1004C188.52 46.3414 186.142 45.8692 183.788 46.2819C178.801 47.1528 175.069 49.3318 172.33 53.6163C171.48 54.9489 170.714 56.3654 170.372 57.9254C169.791 60.587 169.7 63.462 170.372 66.1167C172.295 73.696 180.242 78.6976 187.877 77.5678C196.142 76.3437 202.056 68.53 201.283 60.2792C200.706 54.1515 196.481 49.066 190.741 47.1004Z" fill="#22E6A7"/>
<defs>
<linearGradient id="paint0_linear_56_109" x1="201.386" y1="154.224" x2="49.9131" y2="178.186" gradientUnits="userSpaceOnUse">
<stop stop-color="#22E6A7"/>
<stop offset="0.25" stop-color="#28B8D8"/>
<stop offset="0.503732" stop-color="#6D6BFF"/>
<stop offset="1" stop-color="#A257FF"/>
</linearGradient>
</defs>
</svg>
