<svg width="38" height="30" viewBox="0 0 38 30" fill="none" xmlns="http://www.w3.org/2000/svg">
<path d="M16.556 0.097305C15.6338 -0.00400728 14.6432 -0.0421061 13.7184 0.060938C13.1114 0.128479 12.4949 0.190821 11.8974 0.316379C10.9388 0.516406 9.99584 0.84372 9.09875 1.23425C8.64501 1.43168 8.24582 1.61958 7.8042 1.84385C7.59812 1.94863 7.37211 2.03436 7.17815 2.16251C5.48961 3.27522 4.09808 4.45808 2.92216 6.11371C2.47102 6.74843 2.02854 7.38574 1.69949 8.09493C1.56008 8.39367 1.36958 8.67013 1.29338 8.99225C1.22583 9.06585 1.04745 9.57393 1.01455 9.66571C0.888126 10.0225 0.729666 10.3784 0.621426 10.7412C0.531371 11.0434 0.45257 11.3701 0.384163 11.6766C0.249946 12.2836 0.180673 12.8861 0.100142 13.5026C0.0152825 14.1477 0.0568483 14.8275 0.0559823 15.4769C0.0551164 16.6312 0.0577119 17.7863 0.0481868 18.9406C0.0343321 20.4992 0.0317361 22.0579 0.0256747 23.6165C0.0222111 24.4669 -0.0591859 25.3657 0.0871541 26.2065C0.305365 27.4673 1.24229 28.6527 2.46236 29.0883C4.00802 29.6398 5.7693 29.3472 6.91664 28.1349C7.20153 27.8344 7.4665 27.4984 7.63189 27.1148C8.0813 26.0723 8.01116 25.2444 8.01029 24.1361C8.00856 22.1445 8.00423 20.1528 8.00423 18.1612C8.0051 16.8364 7.90985 15.4829 8.21205 14.1823C8.7316 11.9422 10.3959 10.1619 12.4646 9.26306C13.2621 8.91669 14.1289 8.76256 14.9974 8.76082C15.904 8.75909 16.8158 8.95652 17.641 9.32714C18.3104 9.62761 18.9607 9.99303 19.5027 10.4961C20.5947 11.5101 21.4415 12.8116 21.768 14.2811C21.9697 15.1894 21.9567 16.1116 21.955 17.0355C21.9507 18.3578 21.8892 19.7 21.9897 21.0188C22.097 22.4302 22.5603 23.9153 23.324 25.1137C24.5285 27.004 26.3807 28.5626 28.5966 29.0986C29.7716 29.3835 30.9424 29.3671 32.1425 29.3688C33.6232 29.3697 35.0113 29.5307 36.2349 28.5323C37.8446 27.2187 37.926 24.4894 36.1647 23.2736C35.1386 22.5653 34.4909 22.8536 33.3938 22.6649C31.8533 22.399 30.4964 21.3885 29.8963 19.9286C29.4426 18.8263 29.5517 17.5941 29.5517 16.4294L29.5517 16.3327C29.551 14.563 29.5503 12.8882 29.1387 11.1516C28.232 7.32774 25.6984 3.78784 22.2286 1.88455C21.4814 1.47497 20.7072 1.13034 19.9123 0.826406C18.8395 0.415961 17.6904 0.221997 16.556 0.097305Z" fill="url(#paint0_linear_56_131)"/>
<path d="M34.8588 0.240464C34.309 0.0525938 33.7203 -0.0642811 33.1376 0.0378788C31.9031 0.253454 30.9793 0.792816 30.3014 1.85337C30.091 2.18323 29.9014 2.53386 29.8166 2.91999C29.6729 3.57884 29.6504 4.29049 29.8166 4.94761C30.2927 6.82371 32.2598 8.06177 34.1497 7.78213C36.1955 7.47911 37.6595 5.54498 37.4682 3.50265C37.3253 1.98583 36.2795 0.727022 34.8588 0.240464Z" fill="#22E6A7"/>
<defs>
<linearGradient id="paint0_linear_56_131" x1="37.4942" y1="26.7568" x2="3.59122e-07" y2="32.6884" gradientUnits="userSpaceOnUse">
<stop stop-color="#22E6A7"/>
<stop offset="0.25" stop-color="#28B8D8"/>
<stop offset="0.503732" stop-color="#6D6BFF"/>
<stop offset="1" stop-color="#A257FF"/>
</linearGradient>
</defs>
</svg>
