<svg width="687" height="287" viewBox="0 0 687 287" fill="none" xmlns="http://www.w3.org/2000/svg">
<rect width="687" height="287" fill="black"/>
<path d="M154.442 61.5198C149.516 60.9786 144.224 60.7751 139.284 61.3255C136.041 61.6863 132.748 62.0194 129.556 62.6901C124.435 63.7586 119.398 65.5072 114.606 67.5934C112.182 68.648 110.049 69.6518 107.69 70.8499C106.589 71.4096 105.382 71.8675 104.346 72.5522C95.3255 78.4962 87.8919 84.815 81.6102 93.6594C79.2002 97.0501 76.8365 100.455 75.0787 104.243C74.3339 105.839 73.3163 107.316 72.9092 109.037C72.5484 109.43 71.5955 112.144 71.4197 112.634C70.7444 114.54 69.8979 116.441 69.3197 118.379C68.8386 119.994 68.4176 121.739 68.0522 123.376C67.3352 126.619 66.9652 129.837 66.535 133.131C66.0816 136.577 66.3037 140.208 66.2991 143.678C66.2944 149.844 66.3083 156.014 66.2574 162.18C66.1834 170.507 66.1695 178.833 66.1372 187.159C66.1187 191.702 65.6838 196.503 66.4656 200.995C67.6313 207.73 72.6363 214.063 79.1539 216.389C87.4109 219.336 96.8196 217.773 102.949 211.297C104.471 209.691 105.886 207.897 106.77 205.847C109.17 200.278 108.796 195.856 108.791 189.935C108.782 179.296 108.759 168.656 108.759 158.017C108.763 150.94 108.254 143.71 109.869 136.762C112.644 124.795 121.535 115.285 132.586 110.483C136.846 108.633 141.476 107.81 146.116 107.8C150.959 107.791 155.83 108.846 160.238 110.826C163.814 112.431 167.288 114.383 170.184 117.07C176.017 122.487 180.541 129.44 182.285 137.289C183.362 142.142 183.293 147.068 183.284 152.004C183.261 159.067 182.932 166.237 183.469 173.282C184.042 180.822 186.517 188.755 190.597 195.157C197.031 205.255 206.926 213.582 218.763 216.445C225.04 217.967 231.294 217.879 237.705 217.888C245.615 217.893 253.03 218.753 259.567 213.42C268.166 206.403 268.601 191.822 259.192 185.328C253.71 181.544 250.25 183.084 244.39 182.076C236.16 180.656 228.912 175.257 225.706 167.458C223.282 161.57 223.865 154.987 223.865 148.766L223.865 148.249C223.861 138.796 223.858 129.849 221.659 120.572C216.816 100.145 203.281 81.2346 184.745 71.0673C180.753 68.8793 176.618 67.0383 172.372 65.4147C166.64 63.2221 160.502 62.1859 154.442 61.5198Z" fill="url(#paint0_linear_56_109)"/>
<path fill-rule="evenodd" clip-rule="evenodd" d="M389.914 212.802C393.483 212.205 397.283 214.221 398.051 217.925C398.328 219.256 398.245 220.671 398.245 222.025C398.25 222.992 398.541 226.168 397.778 226.751C396.766 227.532 395.684 226.76 395.522 225.701C395.036 222.483 396.992 216.875 392.715 215.488C392.165 215.308 391.569 215.261 390.991 215.275C386.307 215.377 386.913 220.084 386.918 223.413C386.918 224.67 387.255 227.685 385.004 226.936C383.728 226.51 384.176 223.149 384.181 222.025C384.185 220.666 384.042 219.219 384.292 217.878C384.8 215.114 387.274 213.241 389.914 212.802Z" fill="#5A6472"/>
<path fill-rule="evenodd" clip-rule="evenodd" d="M410.992 213.099C412.574 212.373 412.948 213.917 413.004 215.087C413.147 217.996 413.027 220.96 413.018 223.874C413.013 224.928 413.314 226.87 411.806 227.005C410.363 227.134 410.248 225.885 410.206 224.799C410.109 222.038 410.201 219.235 410.229 216.475C410.238 215.587 409.942 213.584 410.992 213.099ZM411.413 207.6C413.378 207.323 413.725 210.523 411.797 210.703C409.804 210.888 409.512 207.873 411.413 207.6Z" fill="#5A6472"/>
<path fill-rule="evenodd" clip-rule="evenodd" d="M424.819 213.035C426.063 212.582 426.562 213.53 427.024 214.468C427.991 216.456 428.818 218.505 429.771 220.497C429.932 220.835 430.889 222.966 431.213 222.934C431.453 222.911 432.286 221.001 432.434 220.696C433.28 218.981 434.833 214.824 435.933 213.567C436.484 212.943 437.626 212.508 438.217 213.405C438.869 214.39 437.76 215.916 437.33 216.803C436.188 219.184 435.046 221.579 433.858 223.937C433.395 224.857 432.965 226.244 432.078 226.836C430.839 227.654 429.826 226.646 429.271 225.597C428.402 223.96 427.764 222.18 426.987 220.493C426.358 219.138 425.577 217.857 424.934 216.512C424.504 215.61 423.307 213.581 424.819 213.035Z" fill="#5A6472"/>
<path fill-rule="evenodd" clip-rule="evenodd" d="M454.517 212.75C455.696 212.607 456.884 212.704 458.026 213.051C465.673 215.381 464.041 226.611 456.213 227.319C446.615 228.183 444.918 213.92 454.517 212.75ZM454.003 215.46C448.34 217.096 450.735 226.274 457.041 224.42C462.663 222.774 460.226 213.661 454.003 215.46Z" fill="#5A6472"/>
<path fill-rule="evenodd" clip-rule="evenodd" d="M480.082 212.782C483.327 212.338 486.934 213.984 488.099 217.211C488.663 218.77 488.607 220.462 488.584 222.094C488.566 223.102 488.871 226.227 488.025 226.805C486.434 227.887 486.383 225.927 485.796 225.746C485.699 225.714 485.389 225.95 485.371 225.959C484.742 226.333 484.206 226.689 483.498 226.916C481.534 227.554 479.305 227.411 477.47 226.44C471.159 223.088 473.119 213.739 480.082 212.782ZM479.471 215.492C476.637 216.361 475.625 220.235 477.146 222.593C478.348 224.456 480.826 225.02 482.837 224.332C488.339 222.45 485.579 213.614 479.471 215.492Z" fill="#5A6472"/>
<path fill-rule="evenodd" clip-rule="evenodd" d="M501.182 213.078C502.777 212.389 503.147 213.888 503.203 215.085C503.337 217.999 503.189 220.954 503.207 223.872C503.212 224.922 503.531 226.878 502.01 227.021C500.548 227.16 500.442 225.893 500.414 224.797C500.34 222.031 500.442 219.243 500.437 216.473C500.437 215.562 500.081 213.555 501.182 213.078ZM501.617 207.598C503.628 207.293 504.058 210.558 502.005 210.715C500.067 210.863 499.762 207.876 501.617 207.598Z" fill="#5A6472"/>
<path fill-rule="evenodd" clip-rule="evenodd" d="M516.413 223.833C518.53 223.671 518.89 226.956 516.763 227.196C514.452 227.459 514.087 224.008 516.413 223.833Z" fill="#5A6472"/>
<path fill-rule="evenodd" clip-rule="evenodd" d="M531.664 213.016C532.964 212.563 533.532 213.525 533.639 214.626C533.939 217.803 533.616 221.146 533.63 224.337C533.634 225.512 533.764 227.144 532.08 227.033C530.633 226.941 530.85 225.378 530.846 224.337C530.827 221.562 530.85 218.788 530.841 216.013C530.836 215.097 530.531 213.405 531.664 213.016ZM531.734 207.615C533.579 207.055 534.67 209.923 532.899 210.584C530.832 211.356 529.768 208.216 531.734 207.615Z" fill="#5A6472"/>
<path fill-rule="evenodd" clip-rule="evenodd" d="M552.108 212.751C552.672 212.705 553.435 212.571 553.972 212.821C554.878 213.241 555.09 214.615 554.129 215.137C552.46 216.043 550.278 214.647 549.057 217.472C548.123 219.631 548.692 222.507 548.627 224.791C548.595 225.937 548.488 227.357 546.893 226.978C545.22 226.58 545.904 223.237 545.918 222.017C545.936 220.5 545.723 218.882 546.121 217.398C546.856 214.679 549.404 212.987 552.108 212.751Z" fill="#5A6472"/>
<path fill-rule="evenodd" clip-rule="evenodd" d="M333.083 117.037C345.687 115.418 359.123 123.536 362.278 136.144C363.462 140.876 362.934 146.037 362.934 150.88C362.934 155.043 362.93 159.205 362.944 163.368C362.957 166.19 362.99 168.997 359.993 170.274C359.327 170.556 358.698 170.671 357.971 170.662C351.589 170.588 353.092 162.499 353.096 158.28C353.106 154.27 353.12 150.265 353.106 146.255C353.096 143.924 353.314 141.458 352.842 139.164C351.746 133.799 347.505 129.192 342.361 127.402C340.414 126.718 338.3 126.32 336.233 126.32C334.156 126.325 332.079 126.75 330.114 127.407C325.072 129.095 320.891 133.35 319.573 138.554C318.819 141.532 319.022 144.594 319.027 147.642C319.027 151.958 319.022 156.278 319.027 160.593C319.027 162.554 319.249 164.663 318.985 166.606C318.453 170.519 313.416 172.003 310.614 169.325C309.073 167.85 309.152 165.787 309.161 163.831C309.18 160.283 309.161 156.74 309.157 153.193C309.147 148.142 308.588 142.416 309.642 137.481C312.103 125.955 321.719 118.499 333.083 117.037Z" fill="white"/>
<path fill-rule="evenodd" clip-rule="evenodd" d="M385.343 118.801C386.07 118.57 386.828 118.5 387.582 118.551C392.3 118.889 391.976 123.306 391.963 126.831C391.916 137.78 391.921 148.724 391.939 159.672C391.949 163.785 393.179 170.556 387.12 170.677C381.56 170.788 382.203 165.376 382.207 161.523C382.216 151.194 382.189 140.86 382.203 130.531C382.212 126.974 380.958 120.184 385.343 118.801ZM385.871 103.171C393.022 101.525 395.325 112.26 388.489 113.648C381.18 115.133 378.858 104.786 385.871 103.171Z" fill="white"/>
<path fill-rule="evenodd" clip-rule="evenodd" d="M409.925 118.892C414.578 117.074 416.155 120.923 417.728 124.206C421.455 131.977 425.341 139.701 429.235 147.388C430.484 149.853 431.71 152.351 432.898 154.844C433.079 155.223 433.638 157.06 434.18 156.912C434.647 156.782 435.095 155.32 435.294 154.913C436.344 152.74 437.482 150.612 438.527 148.434C441.363 142.536 444.448 136.755 447.362 130.895C448.929 127.74 450.433 123.915 452.237 120.95C453.98 118.073 458.323 117.671 460.368 120.437C461.024 121.325 461.371 122.467 461.265 123.568C461.163 124.595 460.502 125.525 460.049 126.427C459.022 128.48 457.99 130.538 456.977 132.606C454.299 138.068 451.649 143.577 448.795 148.947C447.028 152.277 445.211 155.612 443.597 159.016C442.662 160.982 441.589 162.869 440.636 164.825C439.665 166.824 438.985 168.803 436.927 169.936C436.233 170.316 435.549 170.561 434.758 170.639C429.799 171.134 428.504 166.972 426.64 163.378C421.192 152.869 416.076 142.171 410.767 131.593C409.939 129.946 407.459 125.58 407.168 124.049C406.766 121.931 407.867 119.697 409.925 118.892Z" fill="white"/>
<path fill-rule="evenodd" clip-rule="evenodd" d="M500.382 117.581C504.129 117.636 507.718 118.598 511.173 120C514.189 121.221 516.945 123.066 519.318 125.296C521.649 127.493 523.583 130.185 525.003 133.052C526.117 135.3 526.756 137.738 527.209 140.194C530.308 156.9 515.636 172.052 499.06 171.437C484.879 170.91 472.904 160.138 471.974 145.795C471.734 142.099 472.561 138.177 473.889 134.74C475.226 131.267 477.469 128.265 480.041 125.615C482.547 123.029 485.669 121.101 489.009 119.787C492.7 118.335 496.391 117.516 500.382 117.581ZM497.33 127.266C490.461 128.251 484.212 133.034 482.353 139.888C479.805 149.282 485.702 159.287 495.271 161.423C498.134 162.062 501.095 162.108 503.972 161.521C513.042 159.67 519.295 150.36 517.602 141.28C516.409 134.888 511.303 129.662 505.132 127.89C502.616 127.169 499.929 126.896 497.33 127.266Z" fill="white"/>
<path fill-rule="evenodd" clip-rule="evenodd" d="M573.159 126.572C583.233 125.356 593.451 130.546 597.286 140.153C599.099 144.7 598.868 149.589 598.826 154.395C598.798 157.786 598.877 161.181 598.835 164.571C598.812 166.658 598.683 168.725 596.633 169.84C594.705 170.881 592.073 170.071 591.018 168.17C590.717 167.629 590.69 166.14 590.185 165.88C589.797 165.686 588.608 166.852 588.303 167.055C586.365 168.323 584.103 169.239 581.883 169.868C576.29 171.459 570.027 170.511 564.884 167.943C562.645 166.824 560.651 165.066 558.963 163.235C557.251 161.371 555.984 159.372 554.98 157.046C549.092 143.409 558.866 128.302 573.159 126.572ZM575.518 134.482C571.036 134.778 566.803 136.892 564.199 140.625C559.041 148.03 562.506 158.401 570.758 161.634C572.659 162.374 574.787 162.601 576.813 162.499C578.978 162.388 581.092 161.852 583.011 160.834C590.32 156.944 592.692 147.138 587.845 140.366C586.064 137.877 583.381 136.152 580.518 135.185C578.945 134.653 577.178 134.371 575.518 134.482Z" fill="#16D9A2"/>
<path fill-rule="evenodd" clip-rule="evenodd" d="M614.805 127.916C615.753 127.745 616.637 127.865 617.515 128.263C620.332 129.539 620.004 132.324 619.999 134.965C619.99 143.753 619.967 152.541 620.008 161.329C620.027 164.566 620.809 169.946 616.128 170.288C615.082 170.366 614.134 170.075 613.26 169.52C610.869 168.008 611.41 165.154 611.419 162.716C611.456 154.238 611.498 145.756 611.419 137.277C611.387 134.114 610.485 128.702 614.805 127.916ZM615.314 113.198C621.502 112.69 621.988 121.746 616.132 122.241C609.893 122.763 609.033 113.712 615.314 113.198Z" fill="#16D9A2"/>
<path d="M252.218 62.2846C249.281 61.281 246.136 60.6566 243.024 61.2023C236.429 62.3539 231.494 65.2352 227.873 70.9007C226.749 72.6628 225.736 74.5359 225.283 76.5986C224.515 80.1181 224.395 83.9198 225.283 87.4301C227.827 97.4523 238.334 104.066 248.43 102.572C259.359 100.953 267.18 90.6213 266.158 79.7111C265.395 71.6083 259.808 64.8838 252.218 62.2846Z" fill="#22E6A7"/>
<defs>
<linearGradient id="paint0_linear_56_109" x1="266.294" y1="203.935" x2="66" y2="235.621" gradientUnits="userSpaceOnUse">
<stop stop-color="#22E6A7"/>
<stop offset="0.25" stop-color="#28B8D8"/>
<stop offset="0.503732" stop-color="#6D6BFF"/>
<stop offset="1" stop-color="#A257FF"/>
</linearGradient>
</defs>
</svg>
