<svg width="256" height="207" viewBox="0 0 256 207" fill="none" xmlns="http://www.w3.org/2000/svg">
<g clip-path="url(#clip0_56_110)">
<path d="M255.058 0H0V206.019H255.058V0Z" fill="white"/>
<path d="M125.088 27.2427C122.649 26.9748 120.028 26.874 117.582 27.1465C115.976 27.3252 114.346 27.4901 112.765 27.8222C110.229 28.3514 107.735 29.2172 105.362 30.2502C104.162 30.7724 103.106 31.2695 101.938 31.8627C101.393 32.1399 100.795 32.3667 100.282 32.7057C95.8151 35.649 92.1342 38.7779 89.0237 43.1574C87.8303 44.8364 86.6599 46.5222 85.7895 48.3982C85.4207 49.1884 84.9168 49.9197 84.7152 50.7718C84.5365 50.9665 84.0647 52.3104 83.9776 52.5532C83.6432 53.4969 83.2241 54.4383 82.9378 55.3981C82.6995 56.1975 82.4911 57.0616 82.3101 57.8724C81.9551 59.4781 81.7719 61.0717 81.5588 62.7026C81.3344 64.4091 81.4443 66.2071 81.442 67.925C81.4397 70.9783 81.4466 74.0339 81.4214 77.0872C81.3848 81.2101 81.3779 85.3331 81.3619 89.4561C81.3527 91.7054 81.1374 94.083 81.5245 96.3071C82.1017 99.6421 84.5801 102.778 87.8074 103.93C91.896 105.389 96.555 104.615 99.5899 101.408C100.344 100.613 101.044 99.7246 101.482 98.7099C102.671 95.9521 102.485 93.7623 102.483 90.8304C102.478 85.5622 102.467 80.2939 102.467 75.0257C102.469 71.5212 102.217 67.9411 103.017 64.5007C104.391 58.5751 108.793 53.8657 114.265 51.4881C116.375 50.5719 118.668 50.1642 120.965 50.1596C123.363 50.155 125.775 50.6773 127.958 51.6576C129.729 52.4524 131.449 53.419 132.883 54.7498C135.771 57.4321 138.011 60.8748 138.875 64.7618C139.409 67.1646 139.374 69.604 139.37 72.048C139.358 75.5456 139.196 79.096 139.461 82.5845C139.745 86.318 140.971 90.2463 142.991 93.4164C146.177 98.4167 151.077 102.54 156.938 103.957C160.046 104.711 163.143 104.668 166.318 104.672C170.235 104.674 173.906 105.1 177.143 102.46C181.401 98.9848 181.616 91.765 176.957 88.5491C174.243 86.6754 172.53 87.4381 169.628 86.9388C165.553 86.2356 161.964 83.5625 160.376 79.7007C159.176 76.7848 159.465 73.5254 159.465 70.4446L159.464 70.1889C159.463 65.5077 159.461 61.0775 158.372 56.4838C155.974 46.3688 149.272 37.005 140.093 31.9704C138.117 30.887 136.069 29.9753 133.966 29.1714C131.128 28.0857 128.089 27.5726 125.088 27.2427Z" fill="url(#paint0_linear_56_110)"/>
<path fill-rule="evenodd" clip-rule="evenodd" d="M91.5841 171.833C93.3518 171.537 95.234 172.535 95.6141 174.37C95.7514 175.029 95.7102 175.73 95.7102 176.401C95.7125 176.879 95.8568 178.452 95.4789 178.741C94.9775 179.128 94.4417 178.745 94.3615 178.221C94.1211 176.627 95.0897 173.85 92.9717 173.163C92.6992 173.074 92.4038 173.051 92.1176 173.058C89.798 173.108 90.098 175.439 90.1003 177.088C90.1003 177.71 90.2674 179.203 89.1523 178.832C88.5204 178.622 88.7425 176.957 88.7447 176.401C88.747 175.727 88.6761 175.011 88.7997 174.347C89.0516 172.977 90.2766 172.05 91.5841 171.833Z" fill="#5A6472"/>
<path fill-rule="evenodd" clip-rule="evenodd" d="M102.02 171.979C102.803 171.62 102.988 172.385 103.016 172.964C103.087 174.404 103.027 175.872 103.023 177.315C103.02 177.837 103.169 178.799 102.423 178.865C101.708 178.929 101.651 178.311 101.63 177.773C101.582 176.406 101.628 175.018 101.642 173.651C101.647 173.211 101.5 172.22 102.02 171.979ZM102.228 169.256C103.201 169.119 103.373 170.704 102.418 170.793C101.431 170.885 101.287 169.392 102.228 169.256Z" fill="#5A6472"/>
<path fill-rule="evenodd" clip-rule="evenodd" d="M108.867 171.948C109.483 171.723 109.731 172.193 109.96 172.657C110.438 173.642 110.848 174.656 111.32 175.643C111.4 175.81 111.874 176.866 112.034 176.85C112.153 176.838 112.565 175.893 112.639 175.742C113.058 174.892 113.827 172.834 114.372 172.211C114.644 171.902 115.21 171.687 115.503 172.131C115.826 172.618 115.276 173.374 115.063 173.814C114.498 174.993 113.932 176.179 113.344 177.347C113.115 177.802 112.902 178.489 112.462 178.782C111.849 179.188 111.347 178.689 111.072 178.169C110.642 177.358 110.326 176.477 109.941 175.641C109.63 174.97 109.243 174.336 108.925 173.669C108.712 173.223 108.119 172.218 108.867 171.948Z" fill="#5A6472"/>
<path fill-rule="evenodd" clip-rule="evenodd" d="M123.573 171.807C124.157 171.736 124.745 171.784 125.311 171.956C129.098 173.11 128.29 178.672 124.413 179.022C119.66 179.45 118.82 172.386 123.573 171.807ZM123.319 173.149C120.514 173.959 121.7 178.505 124.823 177.586C127.608 176.771 126.401 172.258 123.319 173.149Z" fill="#5A6472"/>
<path fill-rule="evenodd" clip-rule="evenodd" d="M136.232 171.823C137.839 171.604 139.625 172.419 140.203 174.017C140.482 174.789 140.454 175.627 140.443 176.435C140.434 176.934 140.585 178.482 140.166 178.768C139.378 179.304 139.353 178.333 139.062 178.244C139.014 178.228 138.861 178.345 138.852 178.349C138.54 178.535 138.275 178.711 137.924 178.823C136.951 179.139 135.847 179.068 134.938 178.587C131.813 176.927 132.784 172.297 136.232 171.823ZM135.93 173.165C134.526 173.596 134.025 175.515 134.778 176.682C135.373 177.605 136.601 177.884 137.597 177.543C140.322 176.611 138.955 172.236 135.93 173.165Z" fill="#5A6472"/>
<path fill-rule="evenodd" clip-rule="evenodd" d="M146.679 171.971C147.469 171.629 147.652 172.371 147.68 172.964C147.746 174.407 147.673 175.87 147.682 177.315C147.684 177.835 147.842 178.804 147.089 178.875C146.365 178.943 146.312 178.316 146.299 177.773C146.262 176.404 146.312 175.023 146.31 173.651C146.31 173.2 146.134 172.206 146.679 171.971ZM146.894 169.257C147.89 169.106 148.103 170.723 147.086 170.8C146.127 170.874 145.976 169.394 146.894 169.257Z" fill="#5A6472"/>
<path fill-rule="evenodd" clip-rule="evenodd" d="M154.222 177.296C155.271 177.216 155.45 178.843 154.396 178.962C153.251 179.092 153.07 177.383 154.222 177.296Z" fill="#5A6472"/>
<path fill-rule="evenodd" clip-rule="evenodd" d="M161.773 171.939C162.416 171.714 162.698 172.191 162.751 172.736C162.899 174.309 162.739 175.965 162.746 177.545C162.748 178.126 162.812 178.935 161.979 178.88C161.262 178.834 161.37 178.06 161.367 177.545C161.358 176.171 161.37 174.797 161.365 173.423C161.363 172.969 161.212 172.131 161.773 171.939ZM161.807 169.264C162.721 168.987 163.261 170.407 162.384 170.734C161.361 171.117 160.834 169.562 161.807 169.264Z" fill="#5A6472"/>
<path fill-rule="evenodd" clip-rule="evenodd" d="M171.898 171.809C172.177 171.786 172.555 171.72 172.821 171.843C173.27 172.052 173.375 172.732 172.899 172.99C172.072 173.439 170.991 172.748 170.387 174.147C169.924 175.216 170.206 176.64 170.174 177.771C170.158 178.339 170.105 179.042 169.315 178.855C168.486 178.658 168.825 177.002 168.832 176.398C168.841 175.647 168.736 174.845 168.933 174.11C169.297 172.764 170.559 171.926 171.898 171.809Z" fill="#5A6472"/>
<path fill-rule="evenodd" clip-rule="evenodd" d="M77.0896 174.798C76.2628 175.243 75.1794 175.068 74.2518 175.064C72.495 175.052 70.7405 175.055 68.9837 175.046C62.0207 175.014 55.0394 175.068 48.0811 174.798C55.1929 174.521 62.3254 174.535 69.4418 174.494C71.1986 174.484 72.9531 174.482 74.7099 174.478C75.5184 174.475 76.4323 174.308 77.0896 174.798Z" fill="url(#paint1_linear_56_110)"/>
<path fill-rule="evenodd" clip-rule="evenodd" d="M216.153 174.797C213.141 174.971 210.118 174.937 207.101 174.959C202.596 174.996 198.093 175.063 193.588 175.076C191.68 175.081 189.769 175.072 187.861 175.069C187.003 175.067 185.963 175.269 185.241 174.797C185.896 174.293 186.815 174.465 187.632 174.46C189.54 174.451 191.451 174.456 193.359 174.46C198.322 174.474 203.283 174.524 208.247 174.604C210.883 174.646 213.521 174.643 216.153 174.797Z" fill="url(#paint2_linear_56_110)"/>
<path fill-rule="evenodd" clip-rule="evenodd" d="M63.4426 124.412C69.6841 123.61 76.3379 127.63 77.9 133.874C78.4863 136.217 78.2252 138.773 78.2252 141.171C78.2252 143.233 78.2229 145.294 78.2298 147.356C78.2367 148.753 78.2527 150.143 76.7685 150.775C76.4387 150.915 76.1272 150.972 75.7676 150.968C72.6067 150.931 73.3511 146.925 73.3534 144.836C73.358 142.85 73.3649 140.867 73.358 138.881C73.3534 137.726 73.4611 136.506 73.2275 135.37C72.6846 132.713 70.5843 130.431 68.0373 129.545C67.073 129.206 66.0263 129.009 65.0024 129.009C63.974 129.011 62.9456 129.222 61.9722 129.547C59.4756 130.383 57.405 132.49 56.7522 135.067C56.3789 136.542 56.4797 138.059 56.482 139.568C56.482 141.705 56.4797 143.844 56.482 145.981C56.482 146.952 56.5919 147.997 56.4613 148.959C56.1979 150.897 53.7036 151.632 52.3156 150.306C51.5529 149.575 51.5918 148.553 51.5964 147.585C51.6056 145.828 51.5964 144.073 51.5941 142.317C51.5896 139.815 51.3124 136.98 51.8346 134.536C53.0532 128.828 57.815 125.136 63.4426 124.412Z" fill="black"/>
<path fill-rule="evenodd" clip-rule="evenodd" d="M89.3189 125.286C89.6785 125.172 90.0541 125.137 90.4275 125.162C92.7637 125.33 92.6034 127.517 92.5965 129.262C92.5736 134.684 92.5759 140.103 92.5851 145.525C92.5897 147.561 93.1989 150.914 90.1984 150.974C87.4453 151.029 87.7637 148.349 87.766 146.441C87.7706 141.326 87.7568 136.209 87.7637 131.095C87.7683 129.333 87.1475 125.971 89.3189 125.286ZM89.58 117.547C93.121 116.731 94.2617 122.047 90.8764 122.735C87.2575 123.47 86.1077 118.346 89.58 117.547Z" fill="black"/>
<path fill-rule="evenodd" clip-rule="evenodd" d="M101.492 125.332C103.796 124.432 104.577 126.337 105.356 127.964C107.202 131.812 109.126 135.637 111.054 139.443C111.673 140.664 112.28 141.901 112.868 143.136C112.958 143.323 113.235 144.233 113.503 144.159C113.734 144.095 113.956 143.372 114.055 143.17C114.575 142.093 115.138 141.04 115.656 139.961C117.06 137.041 118.588 134.178 120.031 131.276C120.807 129.714 121.552 127.819 122.445 126.351C123.308 124.927 125.459 124.727 126.471 126.097C126.797 126.537 126.968 127.102 126.916 127.648C126.865 128.156 126.538 128.616 126.313 129.063C125.805 130.08 125.294 131.099 124.792 132.123C123.466 134.828 122.154 137.556 120.741 140.215C119.866 141.864 118.966 143.516 118.166 145.202C117.704 146.175 117.172 147.11 116.7 148.078C116.219 149.068 115.883 150.048 114.863 150.609C114.52 150.797 114.181 150.919 113.789 150.958C111.334 151.203 110.692 149.141 109.769 147.362C107.071 142.158 104.538 136.86 101.909 131.622C101.499 130.806 100.271 128.644 100.127 127.886C99.9271 126.837 100.472 125.731 101.492 125.332Z" fill="black"/>
<path fill-rule="evenodd" clip-rule="evenodd" d="M146.284 124.681C148.139 124.709 149.916 125.185 151.627 125.879C153.121 126.484 154.486 127.398 155.661 128.502C156.815 129.59 157.773 130.923 158.476 132.343C159.028 133.456 159.344 134.663 159.568 135.879C161.103 144.153 153.838 151.656 145.629 151.351C138.606 151.09 132.676 145.756 132.216 138.653C132.097 136.823 132.507 134.881 133.164 133.179C133.826 131.459 134.937 129.972 136.21 128.66C137.452 127.38 138.998 126.424 140.652 125.774C142.479 125.055 144.307 124.649 146.284 124.681ZM144.772 129.478C141.371 129.966 138.276 132.334 137.356 135.728C136.094 140.38 139.014 145.334 143.753 146.393C145.171 146.709 146.637 146.732 148.061 146.441C152.553 145.525 155.649 140.914 154.811 136.418C154.22 133.252 151.692 130.664 148.636 129.787C147.39 129.43 146.059 129.294 144.772 129.478Z" fill="black"/>
<path fill-rule="evenodd" clip-rule="evenodd" d="M182.32 129.135C187.308 128.532 192.368 131.102 194.267 135.859C195.164 138.111 195.05 140.532 195.029 142.912C195.016 144.59 195.055 146.272 195.034 147.951C195.022 148.984 194.958 150.007 193.944 150.559C192.989 151.075 191.685 150.674 191.163 149.733C191.014 149.465 191 148.727 190.751 148.599C190.558 148.503 189.97 149.08 189.819 149.181C188.859 149.808 187.739 150.262 186.639 150.573C183.87 151.361 180.769 150.892 178.222 149.62C177.113 149.066 176.126 148.196 175.29 147.289C174.443 146.366 173.815 145.376 173.318 144.224C170.402 137.472 175.242 129.991 182.32 129.135ZM183.488 133.051C181.268 133.198 179.173 134.245 177.883 136.093C175.329 139.76 177.045 144.895 181.131 146.496C182.072 146.863 183.126 146.975 184.129 146.924C185.201 146.869 186.248 146.604 187.198 146.1C190.817 144.174 191.992 139.318 189.592 135.965C188.71 134.732 187.382 133.878 185.964 133.399C185.185 133.136 184.31 132.996 183.488 133.051Z" fill="#16D9A2"/>
<path fill-rule="evenodd" clip-rule="evenodd" d="M202.943 129.799C203.413 129.715 203.85 129.774 204.286 129.971C205.68 130.603 205.518 131.982 205.516 133.29C205.511 137.642 205.5 141.994 205.52 146.346C205.529 147.949 205.916 150.613 203.598 150.782C203.081 150.821 202.611 150.677 202.178 150.402C200.994 149.653 201.262 148.24 201.267 147.033C201.285 142.834 201.306 138.634 201.267 134.435C201.251 132.869 200.804 130.189 202.943 129.799ZM203.195 122.511C206.26 122.259 206.5 126.744 203.601 126.989C200.511 127.248 200.085 122.765 203.195 122.511Z" fill="#16D9A2"/>
<path d="M173.505 27.6215C172.051 27.1245 170.493 26.8153 168.952 27.0856C165.686 27.6558 163.242 29.0827 161.449 31.8883C160.892 32.7608 160.391 33.6884 160.166 34.7099C159.786 36.4528 159.727 38.3354 160.166 40.0737C161.426 45.0367 166.629 48.3119 171.629 47.5721C177.041 46.7705 180.914 41.654 180.408 36.2512C180.03 32.2387 177.263 28.9086 173.505 27.6215Z" fill="#22E6A7"/>
</g>
<defs>
<linearGradient id="paint0_linear_56_110" x1="180.474" y1="97.7629" x2="81.2939" y2="113.453" gradientUnits="userSpaceOnUse">
<stop stop-color="#22E6A7"/>
<stop offset="0.25" stop-color="#28B8D8"/>
<stop offset="0.503732" stop-color="#6D6BFF"/>
<stop offset="1" stop-color="#A257FF"/>
</linearGradient>
<linearGradient id="paint1_linear_56_110" x1="48.0261" y1="174.684" x2="77.1148" y2="174.684" gradientUnits="userSpaceOnUse">
<stop stop-color="#9B4DFF" stop-opacity="0"/>
<stop offset="1" stop-color="#9B4DFF"/>
</linearGradient>
<linearGradient id="paint2_linear_56_110" x1="185.227" y1="174.682" x2="216.149" y2="174.682" gradientUnits="userSpaceOnUse">
<stop stop-color="#3E8CF7"/>
<stop offset="1" stop-color="#18D8A6" stop-opacity="0"/>
</linearGradient>
<clipPath id="clip0_56_110">
<rect width="256" height="207" fill="white"/>
</clipPath>
</defs>
</svg>
